{
  "asset": {
    "version": "2.0",
    "generator": "THREE.GLTFExporter"
  },
  "scenes": [
    {
      "nodes": [
        3
      ],
      "name": "AuxScene"
    }
  ],
  "scene": 0,
  "nodes": [
    {
      "matrix": [
        1,
        0,
        0,
        0,
        0,
        1,
        0,
        0,
        0,
        0,
        1,
        0,
        4.0762,
        34.9321,
        63.5788,
        1
      ],
      "name": "Lamp",
      "extras": {
        "gltfExtensions": {
          "KHR_lights_punctual": {
            "light": 0
          }
        }
      }
    },
    {
      "matrix": [
        1,
        0,
        0,
        0,
        0,
        1,
        0,
        0,
        0,
        0,
        1,
        0,
        5.0469,
        4.336,
        -70.2756,
        1
      ],
      "name": "test",
      "mesh": 0
    },
    {
      "name": "entity_1",
      "children": [
        0,
        1
      ]
    },
    {
      "name": "entity_0",
      "children": [
        2
      ]
    }
  ],
  "bufferViews": [
    {
      "buffer": 0,
      "byteOffset": 0,
      "byteLength": 502368,
      "target": 34962,
      "byteStride": 12
    },
    {
      "buffer": 0,
      "byteOffset": 502368,
      "byteLength": 502368,
      "target": 34962,
      "byteStride": 12
    },
    {
      "buffer": 0,
      "byteOffset": 1004736,
      "byteLength": 449988,
      "target": 34963
    }
  ],
  "buffers": [
    {
      "byteLength": 1454724,
      "uri": "data:application/octet-stream;base64,"
    }
  ],
  "accessors": [
    {
      "bufferView": 0,
      "componentType": 5126,
      "count": 41864,
      "max": [
        23.772199630737305,
        30.47010040283203,
        29.01689910888672
      ],
      "min": [
        -23.772199630737305,
        -30.493799209594727,
        -29.024200439453125
      ],
      "type": "VEC3"
    },
    {
      "bufferView": 1,
      "componentType": 5126,
      "count": 41864,
      "max": [
        0.9998999834060669,
        0.9998999834060669,
        0.9998999834060669
      ],
      "min": [
        -0.9998999834060669,
        -0.9998999834060669,
        -0.9998000264167786
      ],
      "type": "VEC3"
    },
    {
      "bufferView": 2,
      "componentType": 5123,
      "count": 224994,
      "max": [
        41863
      ],
      "min": [
        0
      ],
      "type": "SCALAR"
    }
  ],
  "materials": [
    {
      "pbrMetallicRoughness": {
        "baseColorFactor": [
          0.6549019607843137,
          0.5058823529411764,
          0.9882352941176471,
          1
        ],
        "metallicFactor": 0,
        "roughnessFactor": 0.9
      },
      "extensions": {
        "KHR_materials_unlit": {}
      },
      "name": "entity_2"
    }
  ],
  "meshes": [
    {
      "primitives": [
        {
          "mode": 4,
          "attributes": {
            "POSITION": 0,
            "NORMAL": 1
          },
          "indices": 2,
          "material": 0
        }
      ]
    }
  ],
  "extensionsUsed": [
    "KHR_materials_unlit"
  ]
}